<svg xmlns="http://www.w3.org/2000/svg" xmlns:xlink="http://www.w3.org/1999/xlink" width="494.847" height="307.849" viewBox="0 0 494.847 307.849">
  <defs>
    <linearGradient id="linear-gradient" x1="0.168" y1="1" x2="0.824" y2="0.397" gradientUnits="objectBoundingBox">
      <stop offset="0" stop-color="#3f74ff"/>
      <stop offset="1" stop-color="#69deff"/>
    </linearGradient>
    <linearGradient id="linear-gradient-5" x1="0.234" y1="0.727" x2="0.719" y2="0.296" gradientUnits="objectBoundingBox">
      <stop offset="0" stop-color="#04966a"/>
      <stop offset="1" stop-color="#57e281"/>
    </linearGradient>
    <linearGradient id="linear-gradient-6" x1="0.22" y1="0.5" x2="0.623" y2="0.424" xlink:href="#linear-gradient-5"/>
    <linearGradient id="linear-gradient-7" x1="-0.116" y1="1" x2="0.796" y2="0.419" xlink:href="#linear-gradient-5"/>
    <linearGradient id="linear-gradient-8" x1="0.472" y1="0.553" x2="-0.413" y2="1" gradientUnits="objectBoundingBox">
      <stop offset="0" stop-color="#00427d"/>
      <stop offset="1" stop-color="#00213f"/>
    </linearGradient>
    <linearGradient id="linear-gradient-9" x1="0.277" y1="1.126" x2="0.359" y2="0.357" gradientUnits="objectBoundingBox">
      <stop offset="0" stop-color="#f1a8ff"/>
      <stop offset="1" stop-color="#a05cff"/>
    </linearGradient>
    <linearGradient id="linear-gradient-10" x1="0.633" y1="-1.037" x2="0.5" y2="0.5" gradientUnits="objectBoundingBox">
      <stop offset="0" stop-color="#a05cff"/>
      <stop offset="1" stop-color="#f1a8ff"/>
    </linearGradient>
    <linearGradient id="linear-gradient-11" x1="0.382" y1="0.927" x2="0.773" y2="0.314" gradientUnits="objectBoundingBox">
      <stop offset="0" stop-color="#15a1fc"/>
      <stop offset="1" stop-color="#65d2fc"/>
    </linearGradient>
    <linearGradient id="linear-gradient-12" x1="0.363" y1="1.095" x2="0.663" y2="0.361" xlink:href="#linear-gradient-11"/>
    <linearGradient id="linear-gradient-13" x1="0.212" y1="1" x2="0.564" y2="0.327" xlink:href="#linear-gradient-11"/>
    <linearGradient id="linear-gradient-14" x1="0.161" y1="0.5" x2="1.326" y2="0.371" xlink:href="#linear-gradient-5"/>
    <linearGradient id="linear-gradient-15" x1="0.204" y1="1" x2="0.671" y2="0" xlink:href="#linear-gradient-5"/>
    <linearGradient id="linear-gradient-16" x1="0.208" y1="0.838" x2="0.649" y2="0.191" xlink:href="#linear-gradient-5"/>
    <linearGradient id="linear-gradient-17" x1="-0.077" y1="0.891" x2="0.592" y2="0" xlink:href="#linear-gradient-11"/>
    <linearGradient id="linear-gradient-18" x1="0.061" y1="1.52" x2="0.582" y2="0.353" xlink:href="#linear-gradient-10"/>
    <linearGradient id="linear-gradient-19" x1="8.043" y1="0" x2="6.2" y2="-0.394" xlink:href="#linear-gradient-9"/>
    <linearGradient id="linear-gradient-21" x1="0.76" y1="-0.174" x2="-0.287" y2="0.5" xlink:href="#linear-gradient-11"/>
    <linearGradient id="linear-gradient-22" x1="0.228" y1="1" x2="0.565" y2="0.5" xlink:href="#linear-gradient-11"/>
    <linearGradient id="linear-gradient-23" x1="-1.216" y1="-0.335" x2="0.5" y2="-1.434" xlink:href="#linear-gradient-11"/>
    <linearGradient id="linear-gradient-25" x1="-0.359" y1="1" x2="1" y2="0.5" xlink:href="#linear-gradient-11"/>
    <linearGradient id="linear-gradient-26" x1="-0.138" y1="0.744" x2="0.857" y2="0.5" xlink:href="#linear-gradient-11"/>
    <linearGradient id="linear-gradient-27" x1="0" y1="1" x2="1" y2="0" xlink:href="#linear-gradient-11"/>
    <clipPath id="clip-path">
      <rect id="Rectangle_589" data-name="Rectangle 589" width="494.847" height="307.849" fill="url(#linear-gradient)"/>
    </clipPath>
    <clipPath id="clip-path-4">
      <path id="Path_346" data-name="Path 346" d="M60.622,307.849H455.406c30.142,0,47.743-48.325,35.523-83.155-13.816-39.374-37.17-45.448-52.476-75.888-12.773-25.4-21.917-61.86-33.1-88C385.34,14.035,321.9-13.49,269.72,6.714c-29.374,11.376-60.633,26.42-84.77,29.872C156.467,40.66,116.1,37.3,92.916,54.348,66.627,73.676,63.039,113.182,46.9,141.539c-14.365,25.235-37.069,45.373-44.4,73.468-12.06,46.193,21.615,92.842,58.128,92.842" transform="translate(0 0)" fill="url(#linear-gradient)"/>
    </clipPath>
    <clipPath id="clip-path-5">
      <path id="Path_263" data-name="Path 263" d="M410.16,230.521c-2.585.816-3.513,4.518-6.073,5.406a7.1,7.1,0,0,1-4.025-.257,6.9,6.9,0,0,0-4.091-.231c-4.549,1.71-7.172,6.993-10.456,9.852-1.74,1.515-4.7.745-6.674,1.952-2.334,1.429-5.053,5.253-6.437,7.341l29.5-.013c.638,0,1.268-.028,1.888-.079s1.231-.13,1.833-.233,1.2-.227,1.78-.378,1.157-.325,1.723-.522,1.119-.419,1.665-.66,1.08-.506,1.607-.791,1.043-.592,1.55-.92,1-.675,1.492-1.042.964-.756,1.433-1.162c.047-.04.091-.086.135-.126a9.056,9.056,0,0,1,1.924-2.64,12.089,12.089,0,0,1,1.7-1.174c3.872-2.3,9.979-4.083,10.053-7.694v-.132a5.376,5.376,0,0,0-1.3-3.086,8.223,8.223,0,0,0-1.8-1.688c-2.606-1.848-6.464-2.676-10.234-2.707h-.22a23.763,23.763,0,0,0-6.973.987" transform="translate(-372.404 -229.534)" fill="url(#linear-gradient-5)"/>
    </clipPath>
    <clipPath id="clip-path-6">
      <rect id="Rectangle_546" data-name="Rectangle 546" width="475.101" height="286.563" fill="none"/>
    </clipPath>
    <clipPath id="clip-path-7">
      <path id="Path_265" data-name="Path 265" d="M396.3,212.83c-2.88,1.436-3.282,5.951-6.117,7.465-1.406.752-3.09.6-4.771.445-1.714-.156-3.426-.312-4.839.49-5.019,2.85-7.111,9.529-10.431,13.49-1.762,2.1-5.379,1.749-7.464,3.53-3.45,2.945-7.012,11.656-7.012,11.656l4.269,7.012,18.471-.007c.023-.016.046-.026.067-.041,4.237-2.659,5.206-6.857,10.456-9.843,4.541-2.584,10.646-.6,15.4-6.081,2.765-3.191,2.553-8.494,5.143-11.576,4.2-5,17.277-9.2,10.008-16.113-2.386-2.268-6.182-3.225-10.22-3.264H409a29.956,29.956,0,0,0-12.7,2.837" transform="translate(-355.665 -209.993)" fill="url(#linear-gradient-6)"/>
    </clipPath>
    <clipPath id="clip-path-9">
      <path id="Path_267" data-name="Path 267" d="M366.4,188.634c-2.686,3.711-.214,9.67-2.795,13.453s-9.021,3.663-11.506,7.512c-4.452,6.9-2.688,16.712-4.263,23.9-.837,3.816-5.634,5.753-7.093,9.376-2.049,5.089-1.457,15.419-1.23,18.424l27.4-.012c1.99-1.109,4.087-1.993,6.039-5.338,3.588-6.15,2.046-12.082,6.7-19.31,4.026-6.253,13.036-7.77,15.413-17.821,1.386-5.849-2.377-12.4-1.14-18,2-9.069,15.728-23,2-26.921a13.732,13.732,0,0,0-3.774-.5c-9.161,0-20.378,7.821-25.746,15.241" transform="translate(-339.261 -173.393)" fill="url(#linear-gradient-7)"/>
    </clipPath>
    <clipPath id="clip-path-11">
      <path id="Rectangle_552" data-name="Rectangle 552" d="M5.372,0h226.3a5.372,5.372,0,0,1,5.372,5.372V176.165a5.371,5.371,0,0,1-5.371,5.371H5.371A5.371,5.371,0,0,1,0,176.165V5.372A5.372,5.372,0,0,1,5.372,0Z" fill="url(#linear-gradient-8)"/>
    </clipPath>
    <linearGradient id="linear-gradient-33" x1="0.465" y1="0.413" x2="0.478" y2="2.704" gradientUnits="objectBoundingBox">
      <stop offset="0" stop-color="#fff"/>
      <stop offset="1" stop-color="#757384"/>
    </linearGradient>
    <clipPath id="clip-path-13">
      <rect id="Rectangle_556" data-name="Rectangle 556" width="49.552" height="31.234" fill="url(#linear-gradient-9)"/>
    </clipPath>
    <clipPath id="clip-path-15">
      <path id="Path_275" data-name="Path 275" d="M36.247,181v4.926l24.776,16.259L85.8,185.929V181Z" transform="translate(-36.247 -181.003)" fill="url(#linear-gradient-10)"/>
    </clipPath>
    <clipPath id="clip-path-16">
      <path id="Path_276" data-name="Path 276" d="M294.862,158.742c-10.769,3.234-17.8,8.823-25.122,15.544-13.885,18.759-20.1,48.3-21.123,69.534a272.412,272.412,0,0,1-29.6,8.116l4.6,8.849,38.545-.091,79.076.452,1.369-86.318a86.52,86.52,0,0,0-34.47-17.363Z" transform="translate(-219.02 -157.465)" fill="url(#linear-gradient-11)"/>
    </clipPath>
    <clipPath id="clip-path-18">
      <path id="Path_281" data-name="Path 281" d="M316.43,194.552c-1.376,13.08,12.369,40.232,12.369,40.232l-47.7,10.79c1.38,5.414,2.944,9.651,6.521,13.543h56.14c10.481,0,16.924-9.254,16.9-20.366-.03-16.494-5-30.518-11.669-45.6a72.544,72.544,0,0,0-13.788-20.17,23.936,23.936,0,0,0-18.775,21.574" transform="translate(-281.098 -172.978)" fill="url(#linear-gradient-12)"/>
    </clipPath>
    <clipPath id="clip-path-20">
      <path id="Path_293" data-name="Path 293" d="M324.145,79.358,350.3,104.7l35.382-34.516Z" transform="translate(-324.145 -70.186)" fill="url(#linear-gradient-13)"/>
    </clipPath>
    <clipPath id="clip-path-22">
      <path id="Path_295" data-name="Path 295" d="M123.7,226.966c-2.217,3.654-2.4,12.6-2.4,12.6l5.323.3s4.187-6.907,4.052-10.725c-.1-2.744-1.823-4.253-3.649-4.253a3.938,3.938,0,0,0-3.328,2.077" transform="translate(-121.305 -224.889)" fill="url(#linear-gradient-14)"/>
    </clipPath>
    <clipPath id="clip-path-23">
      <path id="Path_296" data-name="Path 296" d="M115.657,220.236c-1.49,7.233,1.125,22.127,1.125,22.127l8.1-.376s3.76-14.23,3.3-21.451c-.262-4.132-3.2-6.5-6.2-6.5-2.7,0-5.444,1.918-6.326,6.2" transform="translate(-115.198 -214.035)" fill="url(#linear-gradient-15)"/>
    </clipPath>
    <clipPath id="clip-path-24">
      <path id="Path_297" data-name="Path 297" d="M106.065,223.946c-1.6,7.927,2.4,17.1,2.4,17.1l8.476,3s1.979-14.106.6-21.152a5.277,5.277,0,0,0-5.4-4.135,6.1,6.1,0,0,0-6.07,5.184" transform="translate(-105.688 -218.762)" fill="url(#linear-gradient-16)"/>
    </clipPath>
    <clipPath id="clip-path-25">
      <path id="Path_298" data-name="Path 298" d="M106.04,236.176a13.071,13.071,0,0,0-.188,2.2,13.255,13.255,0,0,0,6.826,11.588h12.845a13.261,13.261,0,0,0,6.849-11.588,13.429,13.429,0,0,0-.2-2.2Z" transform="translate(-105.852 -236.176)" fill="url(#linear-gradient-17)"/>
    </clipPath>
    <clipPath id="clip-path-27">
      <path id="Path_315" data-name="Path 315" d="M174.233,73.027s-15.507,4.454-22.4,8.477c-6.808,3.973-14.315,8.626-18.164,15.138-10.447,17.683-12.049,33.444-12.278,38.913h130.4c-1.982-5.77-9.2-25.78-18.011-38.106a67.392,67.392,0,0,0-18.484-18.21c-7.48-4.879-19.258-7.22-19.258-7.22Z" transform="translate(-121.386 -72.019)" fill="url(#linear-gradient-18)"/>
    </clipPath>
    <clipPath id="clip-path-28">
      <path id="Path_316" data-name="Path 316" d="M155.161,132.025h2.185a130.814,130.814,0,0,0-6.357-30.4,160.986,160.986,0,0,1,4.173,30.4" transform="translate(-150.988 -101.626)" fill="url(#linear-gradient-19)"/>
    </clipPath>
    <clipPath id="clip-path-29">
      <path id="Path_317" data-name="Path 317" d="M221.87,132.567h2.556c-1.381-11.731-4.749-23.573-9.33-35.483a183.717,183.717,0,0,1,6.774,35.483" transform="translate(-215.096 -97.084)" fill="url(#linear-gradient-19)"/>
    </clipPath>
    <linearGradient id="linear-gradient-46" x1="0.5" y1="0.28" x2="0.5" y2="1" gradientUnits="objectBoundingBox">
      <stop offset="0" stop-color="#73b7ea"/>
      <stop offset="1" stop-color="#3a5c75"/>
    </linearGradient>
    <clipPath id="clip-path-31">
      <path id="Path_326" data-name="Path 326" d="M172.781,23.137c-3.494,6.613-4.214,15.119-4.049,22.034l4.3-.1c-.181-7.634,1.136-17.257,5.287-22.621A4.874,4.874,0,0,0,176.17,22a5.131,5.131,0,0,0-3.389,1.136" transform="translate(-168.71 -22.001)" fill="url(#linear-gradient-21)"/>
    </clipPath>
    <linearGradient id="linear-gradient-48" x1="0.5" x2="0.5" y2="1" gradientUnits="objectBoundingBox">
      <stop offset="0" stop-color="#73b7ea"/>
      <stop offset="1" stop-color="#8cf"/>
    </linearGradient>
    <clipPath id="clip-path-33">
      <path id="Path_337" data-name="Path 337" d="M14.629,63.612c-6.724,13.258-1.593,30.5,12.042,40.46,13.66,9.936,31.655,9.538,42.214-.931,5.127-5.211-11.611-17.1-13.132-11.742-2.56,8.49-14.788,8.1-21.944,2.88S22.717,77.792,29.838,72.506c2.871-2.168-6.555-10.771-12.058-10.772a3.215,3.215,0,0,0-3.151,1.878" transform="translate(-11.688 -61.734)" fill="url(#linear-gradient-22)"/>
    </clipPath>
    <clipPath id="clip-path-34">
      <path id="Path_338" data-name="Path 338" d="M15.792,62c.341,1.24,1.568,3.208,5.367,5.763,4.9,3.3,7.453,3.985,8.663,4.048.716-2.572-5.789-8.553-10.775-9.835a7.1,7.1,0,0,0-1.754-.244,3.97,3.97,0,0,0-1.5.267" transform="translate(-15.792 -61.734)" fill="url(#linear-gradient-23)"/>
    </clipPath>
    <clipPath id="clip-path-35">
      <path id="Path_339" data-name="Path 339" d="M51.611,87.43c.2.97,1.278,3.3,6.41,7.591,3.469,2.9,5.688,3.553,6.981,3.553.986-4.107-6.1-10.183-10.595-11.35a5.58,5.58,0,0,0-1.381-.2,2.281,2.281,0,0,0-1.415.405" transform="translate(-51.611 -87.025)" fill="url(#linear-gradient-23)"/>
    </clipPath>
    <clipPath id="clip-path-36">
      <path id="Path_340" data-name="Path 340" d="M379.208,89.282a2.712,2.712,0,1,1,2.713,2.711,2.7,2.7,0,0,1-2.713-2.711m-2.149,0a4.861,4.861,0,1,0,4.862-4.862,4.877,4.877,0,0,0-4.862,4.862" transform="translate(-377.059 -84.42)" fill="url(#linear-gradient-25)"/>
    </clipPath>
    <clipPath id="clip-path-37">
      <path id="Path_341" data-name="Path 341" d="M394.2,152.712a8.449,8.449,0,1,1,8.449,8.449,8.42,8.42,0,0,1-8.449-8.449m-3.763,0A12.21,12.21,0,1,0,402.648,140.5a12.241,12.241,0,0,0-12.212,12.211" transform="translate(-390.436 -140.501)" fill="url(#linear-gradient-26)"/>
    </clipPath>
    <clipPath id="clip-path-38">
      <path id="Path_342" data-name="Path 342" d="M3.762,148.321a8.449,8.449,0,1,1,8.449,8.449,8.421,8.421,0,0,1-8.449-8.449m-3.762,0a12.211,12.211,0,1,0,12.211-12.212A12.238,12.238,0,0,0,0,148.321" transform="translate(0 -136.109)" fill="url(#linear-gradient-27)"/>
    </clipPath>
  </defs>
  <g id="Group_482" data-name="Group 482" transform="translate(-122 -5416.982)">
    <g id="Group_481" data-name="Group 481" transform="translate(122 5416.982)">
      <g id="Group_480" data-name="Group 480" clip-path="url(#clip-path)">
        <g id="Group_479" data-name="Group 479">
          <g id="Group_478" data-name="Group 478" clip-path="url(#clip-path)">
            <g id="Group_477" data-name="Group 477" opacity="0.3">
              <g id="Group_476" data-name="Group 476">
                <g id="Group_475" data-name="Group 475" clip-path="url(#clip-path)">
                  <g id="Group_474" data-name="Group 474" transform="translate(0 0)">
                    <g id="Group_473" data-name="Group 473" clip-path="url(#clip-path-4)">
                      <rect id="Rectangle_586" data-name="Rectangle 586" width="512.715" height="321.339" transform="translate(-9.566 -13.491)" fill="url(#linear-gradient)"/>
                    </g>
                  </g>
                </g>
              </g>
            </g>
          </g>
        </g>
      </g>
    </g>
    <g id="Group_472" data-name="Group 472" transform="translate(122 5438.268)">
      <g id="Group_403" data-name="Group 403" transform="translate(416.815 256.907)">
        <g id="Group_402" data-name="Group 402" clip-path="url(#clip-path-5)">
          <rect id="Rectangle_545" data-name="Rectangle 545" width="58.286" height="25.05" fill="url(#linear-gradient-5)"/>
        </g>
      </g>
      <g id="Group_405" data-name="Group 405">
        <g id="Group_404" data-name="Group 404" clip-path="url(#clip-path-6)">
          <path id="Path_264" data-name="Path 264" d="M409.148,234.071a.291.291,0,0,0-.246.134c-1.5,2.246-3.245,4.924-4.746,7.31-2.176,1.186-4.386,2.475-6.554,3.8-.736.451-1.465.908-2.187,1.363,1.552-2.541,2.557-5.675,4.1-7.713a.292.292,0,1,0-.467-.353c-1.9,2.507-2.955,6.323-4.877,8.86-1.038.665-2.048,1.331-3.03,1.989a.3.3,0,0,0-.206.138c-2.118,1.426-4.075,2.809-5.776,4.066.358-2.769,2.513-5.492,4.3-7.64a.294.294,0,1,0-.452-.375c-1.88,2.258-4.271,5.2-4.471,8.381h1.124c1.67-1.231,3.574-2.577,5.646-3.97a56.159,56.159,0,0,0,6.135.036c2.224,0,4.339.228,5.659,1.228a.293.293,0,1,0,.355-.467,6.39,6.39,0,0,0-2.729-1.1,18.491,18.491,0,0,0-3.285-.245c-1.9,0-3.828.134-5.367.037,1.86-1.239,3.827-2.5,5.832-3.729,2.541-1.558,5.149-3.059,7.684-4.4,2.668-.13,5.874,1.212,8.882,1.761a.293.293,0,0,0,.134-.571l-.029-.009c-2.538-.462-5.315-1.569-7.9-1.752,4.971-2.553,9.567-4.4,12.676-4.67a.294.294,0,0,0,.065-.574v0a.291.291,0,0,0-.116-.011c-3.542.307-8.663,2.458-14.094,5.347,1.362-2.147,2.857-4.441,4.176-6.413a.294.294,0,0,0-.153-.448.338.338,0,0,0-.087-.013" transform="translate(45.858 27.914)" fill="#0e1126"/>
        </g>
      </g>
      <g id="Group_407" data-name="Group 407" transform="translate(398.08 235.036)">
        <g id="Group_406" data-name="Group 406" clip-path="url(#clip-path-7)">
          <rect id="Rectangle_547" data-name="Rectangle 547" width="71.08" height="46.927" transform="translate(0)" fill="url(#linear-gradient-6)"/>
        </g>
      </g>
      <g id="Group_409" data-name="Group 409">
        <g id="Group_408" data-name="Group 408" clip-path="url(#clip-path-6)">
          <path id="Path_266" data-name="Path 266" d="M408.645,216.648a.348.348,0,0,1,.031.684c-3.6.893-8.644,3.914-14,7.829,3.06-.264,6.521.517,9.583.59l.035,0a.349.349,0,0,1-.052.7c-3.631-.085-7.639-1.063-10.741-.415-2.724,2.042-5.5,4.286-8.194,6.582-2.125,1.813-4.2,3.659-6.148,5.457,1.823-.17,4.063-.689,6.287-1.039a21.807,21.807,0,0,1,3.9-.323,7.6,7.6,0,0,1,3.406.789.348.348,0,1,1-.33.612c-1.733-.928-4.254-.8-6.864-.39a65.636,65.636,0,0,1-7.2,1.1c-2.45,2.28-4.684,4.465-6.558,6.389-.012.013-.024.026-.037.038-.574.588-1.108,1.149-1.61,1.683a35.314,35.314,0,0,0,8.884-.858.41.41,0,0,1,.1,0h0a.348.348,0,0,1,.021.689,33.6,33.6,0,0,1-9.609.816c-1.174,1.277-2.1,2.358-2.71,3.167a.349.349,0,0,1-.557-.419,65.1,65.1,0,0,1,4.88-5.47c-.414-3.8,1.874-7.749,3.678-10.777a.349.349,0,1,1,.6.355c-1.7,2.851-3.719,6.445-3.626,9.758,1.763-1.791,3.8-3.773,6.02-5.839a.354.354,0,0,1,.216-.2q1.543-1.43,3.182-2.9c1.784-3.331,2.314-8,4.075-11.294a.347.347,0,1,1,.612.328c-1.43,2.676-2.026,6.538-3.377,9.806q1.143-1.006,2.312-2.007c2.3-1.96,4.649-3.88,6.98-5.676,1.318-3.078,2.863-6.539,4.207-9.453a.348.348,0,1,1,.632.292c-1.18,2.556-2.507,5.525-3.706,8.3,5.831-4.4,11.438-7.869,15.535-8.886a.318.318,0,0,1,.138-.009Z" transform="translate(43.673 25.836)" fill="#0e1126"/>
        </g>
      </g>
      <g id="Group_411" data-name="Group 411" transform="translate(379.719 194.071)">
        <g id="Group_410" data-name="Group 410" clip-path="url(#clip-path-9)">
          <rect id="Rectangle_549" data-name="Rectangle 549" width="70.954" height="87.903" transform="translate(-0.563)" fill="url(#linear-gradient-7)"/>
        </g>
      </g>
      <g id="Group_413" data-name="Group 413">
        <g id="Group_412" data-name="Group 412" clip-path="url(#clip-path-6)">
          <path id="Path_268" data-name="Path 268" d="M384.9,184.2a.5.5,0,0,1,.489.842c-3.947,3.5-8.324,10.635-12.5,19.1,3.684-2.35,8.566-3.645,12.477-5.574a.353.353,0,0,1,.048-.018.5.5,0,0,1,.392.91c-4.637,2.286-10.337,3.7-13.827,6.558-2.09,4.371-4.116,9.036-6,13.708-1.485,3.688-2.882,7.381-4.159,10.936,2.189-1.417,4.672-3.548,7.248-5.455a30.907,30.907,0,0,1,4.7-2.977,10.829,10.829,0,0,1,4.816-1.25.5.5,0,1,1-.012.991c-2.8-.027-5.894,1.8-8.917,4.035-2.932,2.17-5.775,4.69-8.36,6.131-1.586,4.493-2.966,8.72-4.063,12.383a.375.375,0,0,1-.02.072c-.335,1.121-.641,2.179-.92,3.185,3.892-1.67,7.384-4.4,10.642-6.941a.47.47,0,0,1,.128-.074h0a.5.5,0,0,1,.48.856c-3.45,2.688-7.228,5.659-11.583,7.362-.639,2.385-1.1,4.359-1.331,5.783a.5.5,0,0,1-.978-.162,92.8,92.8,0,0,1,2.551-10.118c-3.029-4.522-2.746-11.01-2.467-16.02a.5.5,0,1,1,.991.055c-.263,4.713-.443,10.581,1.858,14.7,1.042-3.422,2.309-7.267,3.747-11.336a.5.5,0,0,1,.14-.4q1-2.821,2.1-5.75c.056-5.378-2.356-11.619-2.306-16.934a.5.5,0,1,1,.991.009c-.043,4.319,1.753,9.584,2.2,14.6q.777-2.021,1.593-4.055c1.605-3.986,3.306-7.96,5.066-11.761-.368-4.752-.7-10.138-.927-14.7a.5.5,0,1,1,.991-.049c.2,4,.478,8.624.794,12.907,4.458-9.388,9.241-17.465,13.74-21.449a.505.505,0,0,1,.169-.1Z" transform="translate(42.166 21.963)" fill="#0e1126"/>
          <path id="Path_269" data-name="Path 269" d="M174.578,239.993l-.269.422.2.46.1.067,2.027.984.018.01,1.875.82.5-.037.252-.432-.213-.452-.11-.065-1.871-.819-2.009-.977Zm-11.262-6.36.118.487.092.084,1.245.884.013.01,1.845,1.24.012,0,.462.294.5.043.316-.389-.143-.481-.1-.078-.451-.285-.009-.008h0l-1.822-1.223-.012-.009-1.231-.879-.5-.065Zm-9.764-8.443.032.5.076.1,1.292,1.3.013.013,1.808,1.683.485.131.381-.326-.053-.5-.081-.094-1.792-1.669-1.289-1.3-.478-.149Zm-7.965-10.167-.085.494.051.113.229.383.018.024,1.664,2.442.017.022.538.714.456.213.432-.255.034-.5-.065-.106-.524-.693-.008-.008-.01-.015-1.631-2.4,0,0-.015-.019-.215-.357-.429-.26ZM140.2,203.3l-.2.46.023.123.316.965.007.016.541,1.5.007.015.583,1.464.009.022.049.109.4.307.477-.152.143-.48-.038-.119-.039-.085-.006-.016,0-.008-.569-1.425,0-.01v-.006l-.531-1.462-.006-.016-.308-.948-.36-.348Zm-2.467-12.336-.01.122.019.46v.018l.131,1.763,0,.019.189,1.728,0,.017.048.33.292.406.5-.016.271-.421,0-.124-.045-.31,0-.019-.186-1.69v-.02l-.131-1.743-.017-.44-.251-.434-.5-.038Zm.871-12.939-.031.119-.365,2.476,0,.021-.185,1.787.186.467.489.107.366-.342.028-.121.184-1.762.364-2.476-.167-.475-.482-.128Zm3.2-12.571-.053.114-.789,2.313-.009.024-.516,1.779.1.492.461.195.421-.273.05-.114.507-1.755.007-.019v0l.78-2.293-.077-.492-.452-.217Zm5.6-11.721-.076.1-.3.475-.011.021-1.411,2.495-.013.022-.394.776.008.5.419.275.463-.188.069-.1.382-.757.008-.013,0-.008,1.388-2.452.3-.473.039-.5-.391-.315Zm7.862-10.307-.1.082-1.518,1.673-.016.018-1.3,1.567-.1.49.345.362.494-.078.093-.085,1.288-1.551.008-.01.007-.006,1.505-1.658.124-.485-.331-.376Zm114.353-6.733-.1.49.345.36.123.026,1.259.115h.029l2.765.094h.034l.269-.008.435-.246.045-.5-.387-.319-.123-.01-.235.006h-.012l-2.72-.091-.018,0H271.3l-1.228-.111Zm17.353-1.6-.808.181h-.012l-.007,0-3.25.608h0l-.018,0-.078.011-.4.294.016.5.419.272.126,0,.1-.016.021,0,3.292-.617.018,0,.828-.187.381-.327-.053-.5-.441-.238Zm-122.113-.222-1.177.88-.015.013-2.123,1.706-.016.015-.076.066-.182.469.282.411.5,0,.1-.07.062-.056.006,0,.009-.008,2.094-1.684.015-.011,1.164-.87.214-.452-.252-.433-.5-.037Zm92.228-.815-.2.457.262.429.113.048.391.123.015.006,2.657.743.021.006,1.1.262.486-.124.172-.471-.292-.406-.116-.044-1.079-.257-2.638-.738-.391-.123Zm42.215-2.472-.316.114-.015.007-3.14,1.036-.016.007-.567.169-.358.348.086.494.454.208.122-.021.583-.172.016-.006,3.172-1.048.013-.007.329-.119.337-.37-.113-.488-.468-.18Zm-54.273-2-.244.438.222.449.109.062,2.012.833.01,0,1.972.775.5-.056.236-.441-.231-.444-.111-.057-1.962-.773,0,0-.007,0-2-.828Zm-69.212-1.644-.669.356-.015.006-2.367,1.339-.015.009-.7.423-.257.431.207.457.492.085L172.6,131l.687-.417.011-.006v0l2.343-1.322.013-.009.657-.347.282-.413-.18-.467-.488-.115Zm135.377-1.193-.09.044-.01,0-2.932,1.315-.012,0-.865.364-.317.387.139.482.476.156.12-.035.875-.369.013,0,2.955-1.325.009,0,.1-.047.3-.4-.161-.475-.481-.135Zm-78.062-2.136-.242.439.222.448.11.06,3.588,1.482,0,0,.374.157.5-.043.247-.433-.219-.451-.109-.062-.376-.159-.007,0-3.593-1.483Zm-45.548-2.08-.073.028-.01,0-2.508,1.019-.012,0-1.388.6-.313.391.142.48.478.152.12-.035,1.378-.6.01,0,2.486-1.008h0l.074-.029.33-.375-.121-.486-.471-.175Zm135.038-1.65-.479.275-.011.007L319.5,122.6l-.01.006-.627.327-.282.413.179.469.487.116.116-.045.635-.332.009-.006,2.646-1.446.01-.006.49-.285.269-.423-.2-.46-.491-.1Zm-101.679-.569-.186.467.278.416.116.047.314.083,2.556.788,1.2.407.494-.078.215-.452-.251-.432-.111-.054-1.2-.407-.015,0-2.571-.794-.018-.006-.334-.09Zm-20.993-1.669-2.052.419-.029.008-1.35.355-.02,0-.773.236-.357.353.088.49.456.207.123-.022.756-.227,1.352-.356,2.02-.412.388-.317-.045-.5-.433-.245Zm8.221-.4-.063.5.377.334.119.013h.032l2.585.179,1.6.2.469-.176.12-.486-.332-.374-.121-.029-1.633-.206-.03,0-2.618-.181h-.062Zm125.43-4.063-1.879,1.236-.011.008-1.717,1.066-.254.432.213.454.494.078.112-.05,1.733-1.072.01-.009,1.89-1.243.242-.44-.226-.445-.495-.068Zm10.506-7.4-1.581,1.2h0l-.007,0-1.855,1.345-.222.451.245.437.5.045.109-.062,1.862-1.352.01-.008,1.59-1.2.212-.452-.253-.432-.5-.037Z" transform="translate(16.424 12.726)" fill="#fff"/>
        </g>
      </g>
      <g id="Group_415" data-name="Group 415" transform="translate(92.288)">
        <g id="Group_414" data-name="Group 414" clip-path="url(#clip-path-11)">
          <rect id="Rectangle_551" data-name="Rectangle 551" width="237.043" height="181.536" transform="translate(0 0)" fill="url(#linear-gradient-8)"/>
        </g>
      </g>
      <g id="Group_417" data-name="Group 417">
        <g id="Group_416" data-name="Group 416" clip-path="url(#clip-path-6)">
          <rect id="Rectangle_553" data-name="Rectangle 553" width="237.045" height="133.851" transform="translate(92.289 10.294)" fill="url(#linear-gradient-33)"/>
          <path id="Path_270" data-name="Path 270" d="M189.837,133.705l3.735,9.554,10.241.6-7.934,6.5,2.6,9.926-8.637-5.537-8.636,5.537,2.6-9.926-7.932-6.5,10.24-.6Z" transform="translate(20.973 15.945)" fill="#fff"/>
          <path id="Path_271" data-name="Path 271" d="M220.278,135.2l3.263,8.351,8.95.523-6.933,5.685,2.269,8.672-7.548-4.836-7.548,4.836,2.27-8.672-6.934-5.685,8.95-.523Z" transform="translate(24.813 16.123)" fill="#fff"/>
          <path id="Path_272" data-name="Path 272" d="M159.023,135.2l3.263,8.351,8.95.523-6.933,5.685,2.269,8.672-7.548-4.836-7.548,4.836,2.27-8.672-6.934-5.685,8.95-.523Z" transform="translate(17.508 16.123)" fill="#fff"/>
          <path id="Path_273" data-name="Path 273" d="M130.738,136.6l2.825,7.228,7.745.452-6,4.919,1.963,7.506-6.532-4.186-6.532,4.186,1.963-7.506-6-4.919,7.747-.452Z" transform="translate(14.331 16.29)" fill="#fff"/>
          <path id="Path_274" data-name="Path 274" d="M248.213,136.6l2.825,7.228,7.745.452-6,4.919,1.962,7.506-6.532-4.186-6.532,4.186,1.962-7.506-6-4.919,7.745-.452Z" transform="translate(28.34 16.29)" fill="#fff"/>
        </g>
      </g>
      <g id="Group_419" data-name="Group 419" transform="translate(40.57 202.588)">
        <g id="Group_418" data-name="Group 418" clip-path="url(#clip-path-13)">
          <rect id="Rectangle_555" data-name="Rectangle 555" width="49.552" height="31.234" transform="translate(0)" fill="url(#linear-gradient-9)"/>
        </g>
      </g>
      <g id="Group_421" data-name="Group 421">
        <g id="Group_420" data-name="Group 420" clip-path="url(#clip-path-6)">
          <rect id="Rectangle_557" data-name="Rectangle 557" width="23.943" height="0.537" transform="translate(40.38 233.633) rotate(-45.032)" fill="#fff"/>
          <rect id="Rectangle_558" data-name="Rectangle 558" width="0.537" height="23.942" transform="translate(73.006 217.078) rotate(-45)" fill="#fff"/>
        </g>
      </g>
      <g id="Group_423" data-name="Group 423" transform="translate(40.57 202.588)">
        <g id="Group_422" data-name="Group 422" clip-path="url(#clip-path-15)">
          <rect id="Rectangle_560" data-name="Rectangle 560" width="49.552" height="21.185" fill="url(#linear-gradient-10)"/>
        </g>
      </g>
      <g id="Group_425" data-name="Group 425" transform="translate(245.139 176.243)">
        <g id="Group_424" data-name="Group 424" clip-path="url(#clip-path-16)">
          <rect id="Rectangle_561" data-name="Rectangle 561" width="123.588" height="103.681" transform="translate(0)" fill="url(#linear-gradient-11)"/>
        </g>
      </g>
      <g id="Group_427" data-name="Group 427">
        <g id="Group_426" data-name="Group 426" clip-path="url(#clip-path-6)">
          <path id="Path_277" data-name="Path 277" d="M219.247,246.415a6.739,6.739,0,0,1,4.207-4.6c4.084-1.7,9.445-1.372,13.27-.172,2.108.661,4.161,2.222,4.509,4.511.4,2.646-1.066,4.333-3.166,4.64-2.391.348-5.759-.715-8.8-.694-2.319.015-5.858.795-7.154.52a3.409,3.409,0,0,1-2.863-4.207" transform="translate(26.137 28.698)" fill="#fa957d"/>
          <path id="Path_278" data-name="Path 278" d="M261.163,254.781c-3.107-22.01-1.82-50.08,6.726-75.737-8.807,21.1-12.381,48.677-9.705,75.556Z" transform="translate(30.686 21.352)" fill="#18236d"/>
          <path id="Path_279" data-name="Path 279" d="M279.189,244.31c1.38,5.413,2.311,10.914,5.89,14.805h54.7c10.478,0,16.925-9.254,16.9-20.367-.03-16.493-5-30.516-11.669-45.6-5.213-11.786-9.575-20.17-9.575-20.17s-18.981,2.406-20.946,21.063c-1.377,13.08,10.58,39.083,10.58,39.083Z" transform="translate(33.294 20.628)" fill="#18236d"/>
          <path id="Path_280" data-name="Path 280" d="M286.088,239.42c-4.974.983-12.289-1.509-15.327-.434-4.937,1.742-9.691,5.8-14.031,9.825-1.134,1.052,2.523,3.166,3.673,2.132,1.789-1.607,5.281-2.334,7.843-2.441,4.243-.178,8.647,2.659,12.894,2.61,3.053-.036,6.71-1.494,9.627-2.4-.986-3.324-1.735-6.741-4.678-9.3" transform="translate(30.59 28.467)" fill="#e9a192"/>
        </g>
      </g>
      <g id="Group_429" data-name="Group 429" transform="translate(314.62 193.606)">
        <g id="Group_428" data-name="Group 428" clip-path="url(#clip-path-18)">
          <rect id="Rectangle_563" data-name="Rectangle 563" width="79.585" height="86.138" fill="url(#linear-gradient-12)"/>
        </g>
      </g>
      <g id="Group_431" data-name="Group 431">
        <g id="Group_430" data-name="Group 430" clip-path="url(#clip-path-6)">
          <path id="Path_282" data-name="Path 282" d="M306.027,159.234c1.058,3.436-4.412,7.35-11.764,8.624-7.924,1.371-12.409-.716-12.8-4.981-.256-2.786,4.789-5.192,11.909-6.2s12.062.612,12.659,2.555" transform="translate(33.564 18.648)" fill="#fff"/>
          <path id="Path_283" data-name="Path 283" d="M285.028,164.224a113.93,113.93,0,0,0,.282-16.068L301,139.04a104.3,104.3,0,0,0,.187,21.484c.535,5.2-16.7,8.9-16.158,3.7" transform="translate(33.989 16.581)" fill="#e9a192"/>
          <path id="Path_284" data-name="Path 284" d="M300.968,139.04l-15.689,9.117s.209,3.492.15,8a10.751,10.751,0,0,0,3.754.246c3.7-.37,6.229-.985,10.612-6.929.323-.439.194.45.751.965a88.245,88.245,0,0,1,.422-11.4" transform="translate(34.021 16.581)" fill="#e17982"/>
          <path id="Path_285" data-name="Path 285" d="M311.558,141.422c2.1-2.466,3.852-4.8,4.267-8.014.323-2.5-1.618-6.266-1.618-6.266s.892-4.515-2.427-7.479c-5.466-4.88-16.773-4.62-25.592-3.724-9.034.918-11.169,7.44-7.471,12.406a7.541,7.541,0,0,0,3.989,3.063l21.672,16.659s5.614-4.8,7.18-6.646" transform="translate(33.032 13.765)" fill="#351512"/>
          <path id="Path_286" data-name="Path 286" d="M311.558,141.422c2.1-2.466,3.852-4.8,4.267-8.014.323-2.5-1.618-6.266-1.618-6.266s.892-4.515-2.427-7.479c-5.466-4.88-16.773-4.62-25.592-3.724-9.034.918-11.169,7.44-7.471,12.406a7.541,7.541,0,0,0,3.989,3.063l21.672,16.659S309.992,143.265,311.558,141.422Z" transform="translate(33.032 13.765)" fill="none" stroke="#000" stroke-miterlimit="2" stroke-width="0.24"/>
          <path id="Path_287" data-name="Path 287" d="M282.435,129.706s-1.954,2.466-3.011,11.717c-1.075,9.414,3.387,15.08,10.627,14.353,3.7-.372,6.229-.984,10.612-6.928.465-.63-.011,1.476,1.964,1.284,3.133-.3,6.949-6.672,4.273-8.8-1.824-1.447-3.85.382-3.85.382,1.167-3.317-1.163-4.57-.087-8.754-4.756-4.041-9.049-.713-20.528-3.257" transform="translate(33.304 15.468)" fill="#e9a192"/>
          <path id="Path_288" data-name="Path 288" d="M162.737,198.131h89.351l11.8,56.371H174.54Z" transform="translate(19.407 23.628)" fill="#1f1f6f"/>
          <path id="Path_289" data-name="Path 289" d="M254.372,254.5l2.183-.623L245.24,199.165l-2.673-1.034Z" transform="translate(28.927 23.628)" fill="#273485"/>
          <path id="Path_290" data-name="Path 290" d="M209.383,217.429a3,3,0,0,1-3.079,3.278,3.682,3.682,0,0,1-3.636-3.278,3,3,0,0,1,.786-2.319,3.124,3.124,0,0,1,2.293-.96,3.7,3.7,0,0,1,2.456.96,3.559,3.559,0,0,1,1.181,2.319" transform="translate(24.168 25.538)" fill="#4747aa"/>
          <path id="Path_291" data-name="Path 291" d="M252.865,248.825h19.571l-.863-3.087H254.737Z" transform="translate(30.155 29.305)" fill="#273485"/>
          <rect id="Rectangle_564" data-name="Rectangle 564" width="353.522" height="8.432" transform="translate(81.176 278.13)" fill="#6c7bdc"/>
          <path id="Path_292" data-name="Path 292" d="M333.777,86.054l-.265,13.78,8.948-6.205Z" transform="translate(39.773 10.262)" fill="#1f1f6f"/>
        </g>
      </g>
      <g id="Group_433" data-name="Group 433" transform="translate(362.801 78.556)">
        <g id="Group_432" data-name="Group 432" clip-path="url(#clip-path-20)">
          <rect id="Rectangle_566" data-name="Rectangle 566" width="61.534" height="34.516" transform="translate(0 0)" fill="url(#linear-gradient-13)"/>
        </g>
      </g>
      <g id="Group_435" data-name="Group 435">
        <g id="Group_434" data-name="Group 434" clip-path="url(#clip-path-6)">
          <path id="Path_294" data-name="Path 294" d="M348.694,82.023l-15.339,6.344.792.77,14.932-6.177Zm9.749-3.628-5,1.862.354.947,5-1.86Z" transform="translate(39.754 9.349)" fill="#1f1f6f"/>
        </g>
      </g>
      <g id="Group_437" data-name="Group 437" transform="translate(135.771 251.708)">
        <g id="Group_436" data-name="Group 436" clip-path="url(#clip-path-22)">
          <rect id="Rectangle_568" data-name="Rectangle 568" width="9.51" height="14.978" transform="translate(0)" fill="url(#linear-gradient-14)"/>
        </g>
      </g>
      <g id="Group_439" data-name="Group 439" transform="translate(128.936 239.56)">
        <g id="Group_438" data-name="Group 438" clip-path="url(#clip-path-23)">
          <rect id="Rectangle_569" data-name="Rectangle 569" width="14.475" height="28.328" transform="translate(-1.031 -0.001)" fill="url(#linear-gradient-15)"/>
        </g>
      </g>
      <g id="Group_441" data-name="Group 441" transform="translate(118.291 244.85)">
        <g id="Group_440" data-name="Group 440" clip-path="url(#clip-path-24)">
          <rect id="Rectangle_570" data-name="Rectangle 570" width="14.454" height="25.286" transform="translate(-1.222)" fill="url(#linear-gradient-16)"/>
        </g>
      </g>
      <g id="Group_443" data-name="Group 443" transform="translate(118.475 264.341)">
        <g id="Group_442" data-name="Group 442" clip-path="url(#clip-path-25)">
          <rect id="Rectangle_571" data-name="Rectangle 571" width="26.52" height="13.789" fill="url(#linear-gradient-17)"/>
        </g>
      </g>
      <g id="Group_445" data-name="Group 445">
        <g id="Group_444" data-name="Group 444" clip-path="url(#clip-path-6)">
          <path id="Path_299" data-name="Path 299" d="M109.937,223.947a.206.206,0,0,0-.195.141,1.41,1.41,0,0,1-.476.623.528.528,0,0,1-.342.1.7.7,0,0,1-.422-.236.2.2,0,1,0-.285.285,1.115,1.115,0,0,0,.667.351.941.941,0,0,0,.6-.16,1.657,1.657,0,0,0,.641-.833.2.2,0,0,0-.189-.27" transform="translate(12.898 26.707)" fill="#fff"/>
          <path id="Path_300" data-name="Path 300" d="M112.85,224.486a.2.2,0,1,0,0,.4,2.732,2.732,0,0,1,.613.255.858.858,0,0,0,.476.067.951.951,0,0,0,.519-.311.2.2,0,1,0-.294-.275.549.549,0,0,1-.3.19.446.446,0,0,1-.252-.043,1.8,1.8,0,0,0-.767-.288" transform="translate(13.434 26.771)" fill="#fff"/>
          <path id="Path_301" data-name="Path 301" d="M111.106,227.8a.192.192,0,0,0-.151.077,2.064,2.064,0,0,1-.516.517c-.144.076-.271.083-.535-.078a.2.2,0,0,0-.209.346.935.935,0,0,0,.93.09,2.178,2.178,0,0,0,.646-.622.2.2,0,0,0-.165-.329" transform="translate(13.07 27.167)" fill="#fff"/>
          <path id="Path_302" data-name="Path 302" d="M113.1,230.349a.2.2,0,0,0-.091.378,3.419,3.419,0,0,0,.627.362.985.985,0,0,0,.948-.148.2.2,0,0,0-.243-.323.516.516,0,0,1-.566.092,3.974,3.974,0,0,1-.56-.328.2.2,0,0,0-.115-.032" transform="translate(13.465 27.47)" fill="#fff"/>
          <path id="Path_303" data-name="Path 303" d="M109.472,232.157a.2.2,0,0,0-.193.19.238.238,0,0,1-.087.2.386.386,0,0,1-.219.065,1.059,1.059,0,0,1-.3-.031,1.11,1.11,0,0,1-.178-.059.2.2,0,0,0-.289.062.2.2,0,0,0,.083.284,1.009,1.009,0,0,0,.29.106,1.448,1.448,0,0,0,.413.041.787.787,0,0,0,.448-.15.672.672,0,0,0,.242-.495.2.2,0,0,0-.21-.218" transform="translate(12.901 27.686)" fill="#fff"/>
          <path id="Path_304" data-name="Path 304" d="M118.536,218.688a.2.2,0,0,0-.165.307,1.289,1.289,0,0,0,.808.613.766.766,0,0,0,.5-.043.749.749,0,0,0,.369-.412.2.2,0,1,0-.375-.148.322.322,0,0,1-.165.194.359.359,0,0,1-.24.015.941.941,0,0,1-.546-.423.2.2,0,0,0-.184-.1" transform="translate(14.113 26.079)" fill="#fff"/>
          <path id="Path_305" data-name="Path 305" d="M123.986,220.364a.2.2,0,0,0-.158.3,1.546,1.546,0,0,0,.792.757,1.4,1.4,0,0,0,1.038-.025.2.2,0,0,0-.152-.375.974.974,0,0,1-.738.025,1.127,1.127,0,0,1-.581-.567.2.2,0,0,0-.2-.112" transform="translate(14.764 26.279)" fill="#fff"/>
          <path id="Path_306" data-name="Path 306" d="M120.932,221.941a.2.2,0,0,0-.049.387c.237.1.461.285.764.4a1.256,1.256,0,0,0,1.141-.153.2.2,0,0,0-.208-.346.781.781,0,0,1-.788.123c-.216-.084-.445-.274-.76-.4a.19.19,0,0,0-.1-.013" transform="translate(14.4 26.467)" fill="#fff"/>
          <path id="Path_307" data-name="Path 307" d="M118.063,223.784a.2.2,0,0,0-.091.375,1.788,1.788,0,0,0,.877.334,1.982,1.982,0,0,0,.972-.33.2.2,0,1,0-.192-.353,1.7,1.7,0,0,1-.772.28,1.443,1.443,0,0,1-.677-.276.213.213,0,0,0-.116-.029" transform="translate(14.057 26.687)" fill="#fff"/>
          <path id="Path_308" data-name="Path 308" d="M121.625,226.128a.2.2,0,0,0-.123.36,1.957,1.957,0,0,0,.6.375,1.088,1.088,0,0,0,.761-.046.2.2,0,1,0-.151-.372.633.633,0,0,1-.481.035,1.676,1.676,0,0,1-.479-.306.2.2,0,0,0-.13-.047" transform="translate(14.48 26.967)" fill="#fff"/>
          <path id="Path_309" data-name="Path 309" d="M118.44,228.171a.2.2,0,0,0-.138.06,1.044,1.044,0,0,1-.8.242.2.2,0,1,0,0,.4,1.451,1.451,0,0,0,1.082-.359.2.2,0,0,0-.148-.346" transform="translate(13.988 27.21)" fill="#fff"/>
          <path id="Path_310" data-name="Path 310" d="M120.835,229.78a.2.2,0,0,0-.121.345,2.323,2.323,0,0,0,1.717.658.2.2,0,1,0,0-.4,1.887,1.887,0,0,1-1.432-.541.2.2,0,0,0-.165-.06" transform="translate(14.388 27.402)" fill="#fff"/>
          <path id="Path_311" data-name="Path 311" d="M120.052,231.321a.2.2,0,0,0-.071.017,1.834,1.834,0,0,1-1.126.038.2.2,0,1,0-.15.372,2.039,2.039,0,0,0,1.425-.035.2.2,0,0,0-.078-.392" transform="translate(14.14 27.586)" fill="#fff"/>
          <path id="Path_312" data-name="Path 312" d="M126.973,227.7a.2.2,0,0,0-.118.354,2.5,2.5,0,0,0,.9.565.2.2,0,1,0,.126-.382,2.068,2.068,0,0,1-.758-.486.207.207,0,0,0-.147-.052" transform="translate(15.12 27.154)" fill="#fff"/>
          <path id="Path_313" data-name="Path 313" d="M126.507,231.02a.2.2,0,0,0-.091.375,2.054,2.054,0,0,0,.848.357,1.335,1.335,0,0,0,.913-.329.2.2,0,0,0-.242-.325.914.914,0,0,1-.636.253,1.828,1.828,0,0,1-.679-.3.2.2,0,0,0-.114-.03" transform="translate(15.064 27.55)" fill="#fff"/>
          <path id="Path_314" data-name="Path 314" d="M126.447,233.5a.2.2,0,0,0-.106.034.745.745,0,0,1-.372.15.608.608,0,0,1-.317-.116.2.2,0,0,0-.279.071.2.2,0,0,0,.069.276,1,1,0,0,0,.533.171,1.125,1.125,0,0,0,.58-.212.2.2,0,0,0-.109-.374" transform="translate(14.948 27.846)" fill="#fff"/>
        </g>
      </g>
      <g id="Group_447" data-name="Group 447" transform="translate(135.862 80.608)">
        <g id="Group_446" data-name="Group 446" clip-path="url(#clip-path-27)">
          <rect id="Rectangle_573" data-name="Rectangle 573" width="130.398" height="63.537" transform="translate(0 0)" fill="url(#linear-gradient-18)"/>
        </g>
      </g>
      <g id="Group_449" data-name="Group 449" transform="translate(168.994 113.745)">
        <g id="Group_448" data-name="Group 448" clip-path="url(#clip-path-28)">
          <rect id="Rectangle_574" data-name="Rectangle 574" width="6.357" height="30.399" transform="translate(0 0)" fill="url(#linear-gradient-19)"/>
        </g>
      </g>
      <g id="Group_451" data-name="Group 451" transform="translate(240.747 108.662)">
        <g id="Group_450" data-name="Group 450" clip-path="url(#clip-path-29)">
          <rect id="Rectangle_575" data-name="Rectangle 575" width="9.33" height="35.483" fill="url(#linear-gradient-19)"/>
        </g>
      </g>
      <g id="Group_453" data-name="Group 453">
        <g id="Group_452" data-name="Group 452" clip-path="url(#clip-path-6)">
          <path id="Path_318" data-name="Path 318" d="M190.909,77.408c-3.1-9.14-3.229-21.8-3.229-21.8l-18.872-8.476s2.12,15.768-.2,28.861c-1.3,7.336,24.7,8.467,22.3,1.412" transform="translate(20.102 5.621)" fill="#ffcdd2"/>
          <path id="Path_319" data-name="Path 319" d="M169.658,68.276a22.3,22.3,0,0,0-3.986,6.258c1.106,6.287,6.9,10.167,12.211,12.26.958-3.766,3.875-5.958,7.164-7.315-10.894-2.3-14.49-6.418-15.39-11.2" transform="translate(19.757 8.142)" fill="#fff"/>
          <path id="Path_320" data-name="Path 320" d="M182.983,79.333c3.064-.655,6.206-4.592,4.895-9.839a12.443,12.443,0,0,1,4.339,3.683c.7,3.725.185,8.144-1.564,10.95a12.955,12.955,0,0,0-7.67-4.794" transform="translate(21.822 8.287)" fill="#fff"/>
          <path id="Path_321" data-name="Path 321" d="M169.494,52.96s-4.986-6.817-6.351-12.559a14.508,14.508,0,0,1,4.067-13.629c3.706-3.669,10.089-3.4,15.271-4,4.29-.492,5.034-1.963,8.99-3,2.74-.716,5.736.575,8.493-.072,2.806-.658,5.716-3.455,8.562-3,4.156.668,6.795,6.363,4,12.559-2.475,5.48-12.274,7.707-12.274,7.707Z" transform="translate(19.41 1.987)" fill="#081544"/>
          <path id="Path_322" data-name="Path 322" d="M168.782,47.134s.309,2.309.562,5.884a4.648,4.648,0,0,0,1.574.98c1.747.636,2.052-1.649,2.212-.748a14.369,14.369,0,0,0,8.563,10.775,11.67,11.67,0,0,0,6.588.716c-.586-5.128-.627-9.132-.627-9.132Z" transform="translate(20.128 5.621)" fill="#b56c5a"/>
          <path id="Path_323" data-name="Path 323" d="M199.706,35.128s1.724,7.492-1.357,18.91c-2.5,9.269-9.807,12.354-16.341,9.7a14.369,14.369,0,0,1-8.563-10.774c-.159-.9-.464,1.383-2.212.749-4.2-1.528-5.357-9.429-1.749-11.31,3.411-1.778,4.925,1.926,4.925,1.926,2.272-1.668-1.285-5.585,1.89-11.631,5.857-2.174,11.856,2.854,23.407,2.427" transform="translate(19.955 3.834)" fill="#ffcdd2"/>
          <path id="Path_324" data-name="Path 324" d="M180.216,47.186a10.662,10.662,0,0,1-2.2,6.636,6.529,6.529,0,0,1-10.645,0,11.085,11.085,0,0,1,0-13.27,6.527,6.527,0,0,1,10.645,0,10.653,10.653,0,0,1,2.2,6.634" transform="translate(19.696 4.508)" fill="url(#linear-gradient-46)"/>
          <path id="Path_325" data-name="Path 325" d="M177.91,47.012a8.825,8.825,0,0,1-1.822,5.483,5.666,5.666,0,0,1-4.4,2.272c-3.433,0-6.215-3.473-6.215-7.755s2.782-7.753,6.215-7.753a5.668,5.668,0,0,1,4.4,2.271,8.824,8.824,0,0,1,1.822,5.482" transform="translate(19.734 4.682)" fill="#1f1f6f"/>
        </g>
      </g>
      <g id="Group_455" data-name="Group 455" transform="translate(188.829 24.625)">
        <g id="Group_454" data-name="Group 454" clip-path="url(#clip-path-31)">
          <rect id="Rectangle_577" data-name="Rectangle 577" width="9.749" height="23.17" transform="translate(-0.143 0)" fill="url(#linear-gradient-21)"/>
        </g>
      </g>
      <g id="Group_457" data-name="Group 457">
        <g id="Group_456" data-name="Group 456" clip-path="url(#clip-path-6)">
          <path id="Path_327" data-name="Path 327" d="M175.212,46.752a6.054,6.054,0,0,1-1.243,3.755,3.681,3.681,0,0,1-6.009,0,6.288,6.288,0,0,1,0-7.508,3.679,3.679,0,0,1,6.009,0,6.047,6.047,0,0,1,1.243,3.753" transform="translate(19.882 4.942)" fill="url(#linear-gradient-48)"/>
          <path id="Path_328" data-name="Path 328" d="M256.033,4.518a1.564,1.564,0,1,1-1.564-1.564,1.564,1.564,0,0,1,1.564,1.564" transform="translate(30.16 0.352)" fill="#fff"/>
          <path id="Path_329" data-name="Path 329" d="M264.779,4.518a1.564,1.564,0,1,1-1.565-1.564,1.564,1.564,0,0,1,1.565,1.564" transform="translate(31.203 0.352)" fill="#fff"/>
          <path id="Path_330" data-name="Path 330" d="M273.8,4.518a1.564,1.564,0,1,1-1.564-1.564A1.564,1.564,0,0,1,273.8,4.518" transform="translate(32.278 0.352)" fill="#fff"/>
          <path id="Path_331" data-name="Path 331" d="M257.854,98.77a33.758,33.758,0,0,1-2.586,5.6c-6.153,9.132-19.315,23.266-23.793,28H253.12c2.831-4.307,8.213-12.342,13.655-19.581a13.881,13.881,0,0,1,3.791-3c1.293-.811,3.71-2.685,3.71-2.685Z" transform="translate(27.604 11.779)" fill="#ffcdd2"/>
          <path id="Path_332" data-name="Path 332" d="M259.6,86.187S256.6,90,255.99,92.44c-.483,1.947.121,3.865-.206,5.845-.3,1.826-1.53,4.083-1.055,5.873.823,3.1,4.342,4.32,4.342,4.32a4.352,4.352,0,0,0,.18,2.786c2.194,1.609,12.175.169,14.211-1.47a3.748,3.748,0,0,0,.589-3.992c.6-1.074,1.528-3.375.355-4.535,1.242-1.233,1.418-4.914-.062-5.86,1.264-1.674,1.623-4.206,0-5.872a24.17,24.17,0,0,0-6.93-3.465s.2-6.205-1.527-9.161c-1.755-3-7.1-3.642-5.991-1.058a13.378,13.378,0,0,1-.292,10.336" transform="translate(30.365 8.853)" fill="#ffcdd2"/>
          <path id="Path_333" data-name="Path 333" d="M273.889,87.724a.118.118,0,0,0-.035,0,130.727,130.727,0,0,1-13.72,1.615,1.633,1.633,0,0,0-1.312.973,4.494,4.494,0,0,0-.431,1.907,5.818,5.818,0,0,0,.284,2.015,2.263,2.263,0,0,0,1,1.349.2.2,0,0,0,.182-.362,1.926,1.926,0,0,1-.8-1.119,5.454,5.454,0,0,1-.262-1.871,4.117,4.117,0,0,1,.385-1.733,1.2,1.2,0,0,1,.983-.755,131.2,131.2,0,0,0,13.768-1.623.2.2,0,0,0-.041-.4" transform="translate(30.814 10.461)" fill="#b96e5d"/>
          <path id="Path_334" data-name="Path 334" d="M273.9,92.971a.118.118,0,0,0-.035,0,108.49,108.49,0,0,1-14.1,1.6,1.148,1.148,0,0,0-.741.308,1.877,1.877,0,0,0-.457.7,5.333,5.333,0,0,0-.292,1.958,6.9,6.9,0,0,0,.28,1.917,2.246,2.246,0,0,0,.316.659.623.623,0,0,0,.524.294.2.2,0,1,0-.027-.4c-.035,0-.091-.019-.176-.133a1.993,1.993,0,0,1-.252-.544,6.522,6.522,0,0,1-.262-1.8,4.991,4.991,0,0,1,.264-1.8,1.5,1.5,0,0,1,.353-.557.716.716,0,0,1,.481-.2,108.468,108.468,0,0,0,14.161-1.612.2.2,0,0,0-.04-.4" transform="translate(30.801 11.087)" fill="#b96e5d"/>
          <path id="Path_335" data-name="Path 335" d="M273.988,98.206l-.032,0a75.266,75.266,0,0,1-14.535,1.181.985.985,0,0,0-.667.2,1.381,1.381,0,0,0-.416.561,3.858,3.858,0,0,0-.251,1.621,6.012,6.012,0,0,0,.284,1.695,1.629,1.629,0,0,0,.74,1.062.2.2,0,1,0,.162-.367,1.511,1.511,0,0,1-.519-.825,5.624,5.624,0,0,1-.264-1.575,3.591,3.591,0,0,1,.217-1.449,1,1,0,0,1,.291-.4.568.568,0,0,1,.4-.118,75.131,75.131,0,0,0,14.628-1.185.2.2,0,0,0-.04-.4" transform="translate(30.778 11.711)" fill="#b96e5d"/>
          <path id="Path_336" data-name="Path 336" d="M273.65,102.259a.2.2,0,0,0-.051.009,41.245,41.245,0,0,1-14.366,1.395.194.194,0,0,0-.1.013,1.819,1.819,0,0,0-.944.963,3.484,3.484,0,0,0-.291,1.381,3.586,3.586,0,0,0,.206,1.311,1.17,1.17,0,0,0,.693.783c2.42.705,6.251.57,10.276-.162a.2.2,0,1,0-.072-.4c-3.988.725-7.8.839-10.091.172a.849.849,0,0,1-.428-.541,3.232,3.232,0,0,1-.181-1.16,3.093,3.093,0,0,1,.254-1.221,1.409,1.409,0,0,1,.717-.741,41.8,41.8,0,0,0,14.443-1.412.2.2,0,0,0-.071-.394" transform="translate(30.756 12.195)" fill="#b96e5d"/>
        </g>
      </g>
      <g id="Group_459" data-name="Group 459" transform="translate(13.081 69.096)">
        <g id="Group_458" data-name="Group 458" clip-path="url(#clip-path-33)">
          <rect id="Rectangle_579" data-name="Rectangle 579" width="66.108" height="52.274" transform="translate(-3.783 0)" fill="url(#linear-gradient-22)"/>
        </g>
      </g>
      <g id="Group_461" data-name="Group 461" transform="translate(17.675 69.096)">
        <g id="Group_460" data-name="Group 460" clip-path="url(#clip-path-34)">
          <rect id="Rectangle_580" data-name="Rectangle 580" width="14.746" height="10.079" transform="translate(0 0)" fill="url(#linear-gradient-23)"/>
        </g>
      </g>
      <g id="Group_463" data-name="Group 463" transform="translate(57.766 97.403)">
        <g id="Group_462" data-name="Group 462" clip-path="url(#clip-path-35)">
          <rect id="Rectangle_581" data-name="Rectangle 581" width="14.377" height="11.548" transform="translate(0 0)" fill="url(#linear-gradient-23)"/>
        </g>
      </g>
      <g id="Group_465" data-name="Group 465" transform="translate(422.025 94.487)">
        <g id="Group_464" data-name="Group 464" clip-path="url(#clip-path-36)">
          <rect id="Rectangle_582" data-name="Rectangle 582" width="9.722" height="9.722" transform="translate(0 0)" fill="url(#linear-gradient-25)"/>
        </g>
      </g>
      <g id="Group_467" data-name="Group 467" transform="translate(436.997 157.256)">
        <g id="Group_466" data-name="Group 466" clip-path="url(#clip-path-37)">
          <rect id="Rectangle_583" data-name="Rectangle 583" width="24.42" height="24.422" fill="url(#linear-gradient-26)"/>
        </g>
      </g>
      <g id="Group_469" data-name="Group 469" transform="translate(0 152.341)">
        <g id="Group_468" data-name="Group 468" clip-path="url(#clip-path-38)">
          <rect id="Rectangle_584" data-name="Rectangle 584" width="24.421" height="24.421" transform="translate(0 0)" fill="url(#linear-gradient-27)"/>
        </g>
      </g>
      <g id="Group_471" data-name="Group 471">
        <g id="Group_470" data-name="Group 470" clip-path="url(#clip-path-6)">
          <path id="Path_343" data-name="Path 343" d="M57.929,30.759a2.712,2.712,0,1,1-2.713,2.713,2.7,2.7,0,0,1,2.713-2.713m0-2.148a4.861,4.861,0,1,0,4.862,4.861,4.877,4.877,0,0,0-4.862-4.861" transform="translate(6.328 3.412)" fill="#00427d"/>
          <path id="Path_344" data-name="Path 344" d="M367.92,116.924h-4.564v4.512H360.6v-4.512h-4.564v-2.579H360.6v-4.514h2.759v4.514h4.564Z" transform="translate(42.458 13.098)" fill="#00427d"/>
          <path id="Path_345" data-name="Path 345" d="M61.924,143.287H57.361V147.8H54.6v-4.514H50.037v-2.579H54.6v-4.513h2.759v4.513h4.563Z" transform="translate(5.967 16.242)" fill="#00427d"/>
        </g>
      </g>
    </g>
  </g>
</svg>
