<svg id="Group_396" data-name="Group 396" xmlns="http://www.w3.org/2000/svg" xmlns:xlink="http://www.w3.org/1999/xlink" width="66.302" height="63.844" viewBox="0 0 66.302 63.844">
  <defs>
    <clipPath id="clip-path">
      <rect id="Rectangle_539" data-name="Rectangle 539" width="66.302" height="63.844" fill="#00aeef"/>
    </clipPath>
  </defs>
  <g id="Group_395" data-name="Group 395" clip-path="url(#clip-path)">
    <path id="Path_256" data-name="Path 256" d="M61.243,34.434H66.3v2.54H0V34.462H5.066V33.443c0-2.5-.007-5,0-7.5.006-1.288.428-1.7,1.712-1.7q4.7-.006,9.4,0c1.227,0,1.653.431,1.656,1.662.008,2.5,0,5,0,7.5v.982h8.931v-.938q0-9.4,0-18.8c0-1.539.337-1.883,1.87-1.885q4.483-.008,8.967,0c1.611,0,1.932.322,1.933,1.907q0,9.355,0,18.71v1h8.93V33.295q0-15.606,0-31.212C48.47.28,48.751,0,50.583,0q4.4,0,8.794,0c1.523,0,1.865.351,1.865,1.892q0,15.649,0,31.3v1.24m-10.161-.047h7.552V2.593H51.081ZM36.907,15.369H29.385V34.394h7.523ZM7.689,34.39h7.557V26.854H7.689Z" transform="translate(0 0)" fill="#00aeef"/>
    <path id="Path_257" data-name="Path 257" d="M71.773,114.758h2.611a18.389,18.389,0,0,1-.325,3.382,2.979,2.979,0,0,1-2.805,2.192A1.381,1.381,0,0,0,69.9,121.4a24.686,24.686,0,0,1-1.119,2.7,1.337,1.337,0,0,0,.146,1.514,3.428,3.428,0,0,1-.351,4.938Q67.153,132,65.7,133.41a3.413,3.413,0,0,1-4.683.224,1.263,1.263,0,0,0-1.489-.223c-.967.436-1.953.832-2.943,1.215a1.224,1.224,0,0,0-.865,1.142,3.309,3.309,0,0,1-3.25,3.183,41.866,41.866,0,0,1-4.822,0,3.094,3.094,0,0,1-3.128-2.876,1.762,1.762,0,0,0-1.385-1.613,20.174,20.174,0,0,1-2.462-1.024,1.257,1.257,0,0,0-1.5.167,3.392,3.392,0,0,1-4.684-.157q-1.539-1.445-3-2.976a3.411,3.411,0,0,1-.3-4.815,1.334,1.334,0,0,0,.193-1.51c-.449-.96-.863-1.941-1.229-2.936a1.229,1.229,0,0,0-1.146-.86,3.349,3.349,0,0,1-3.174-3.517c-.02-.656,0-1.313,0-2.035h2.54c0,.623.011,1.245,0,1.866a1.012,1.012,0,0,0,1.046,1.189,3.381,3.381,0,0,1,3.111,2.441c.365,1,.793,1.972,1.241,2.934a3.4,3.4,0,0,1-.472,3.862,1.038,1.038,0,0,0,.069,1.638c.91.878,1.8,1.775,2.683,2.68a1.054,1.054,0,0,0,1.649.1,3.423,3.423,0,0,1,4.012-.417c.929.448,1.887.844,2.855,1.2a3.329,3.329,0,0,1,2.375,2.973c.079.835.441,1.164,1.26,1.145,1.292-.03,2.586-.02,3.878,0a.966.966,0,0,0,1.107-1.02,3.444,3.444,0,0,1,2.519-3.147,29.966,29.966,0,0,0,2.775-1.167,3.419,3.419,0,0,1,3.869.369c.818.641,1.092.6,1.839-.134.859-.848,1.7-1.715,2.565-2.555a1.04,1.04,0,0,0,.111-1.638,3.43,3.43,0,0,1-.466-3.938c.441-.932.838-1.888,1.2-2.854a3.421,3.421,0,0,1,3.1-2.461,1.036,1.036,0,0,0,1.073-1.25c-.026-.614-.005-1.231-.005-1.851" transform="translate(-16.922 -75.174)" fill="#00aeef"/>
    <path id="Path_258" data-name="Path 258" d="M81.1,114.839H83.53a13.965,13.965,0,1,1-27.93.008h2.5a11.4,11.4,0,0,0,4.421,8.979,11.276,11.276,0,0,0,7.123,2.43A11.581,11.581,0,0,0,81.1,114.839" transform="translate(-36.42 -75.227)" fill="#00aeef"/>
  </g>
</svg>
