<svg id="Group_394" data-name="Group 394" xmlns="http://www.w3.org/2000/svg" xmlns:xlink="http://www.w3.org/1999/xlink" width="62.723" height="64.058" viewBox="0 0 62.723 64.058">
  <defs>
    <clipPath id="clip-path">
      <rect id="Rectangle_538" data-name="Rectangle 538" width="62.723" height="64.058" fill="#00aeef"/>
    </clipPath>
  </defs>
  <g id="Group_393" data-name="Group 393" clip-path="url(#clip-path)">
    <path id="Path_253" data-name="Path 253" d="M46.533,108.9c2.256-2.258,4.648-4.672,7.062-7.063a5.357,5.357,0,0,1,6.13-1.376,5.1,5.1,0,0,1,2.026,7.628,12.793,12.793,0,0,1-.959,1.079q-7.922,7.954-15.852,15.9c-.107.108-.221.21-.322.324a4.559,4.559,0,0,1-3.708,1.535c-6.519-.068-13.039-.047-19.559-.033a1.94,1.94,0,0,0-1.085.367c-2.454,1.842-4.883,3.717-7.321,5.58-1.516,1.159-2.736,1.04-3.97-.39q-4.1-4.754-8.193-9.512a2.365,2.365,0,0,1-.042-3.475c3.5-3.234,6.96-6.524,10.6-9.6a14.268,14.268,0,0,1,8.889-3.724,19.153,19.153,0,0,1,4.207.472c2.008.406,3.965,1.085,5.982,1.423a36.964,36.964,0,0,0,5.154.339c2.687.069,5.376.033,8.063.107a25.961,25.961,0,0,1,2.9.418M11.063,131.477c.283-.208.529-.382.769-.565,2.259-1.722,4.553-3.4,6.759-5.191a4.616,4.616,0,0,1,3.12-1.068c6.241.031,12.483.021,18.724.034a3.992,3.992,0,0,0,3-1.223q7.872-7.9,15.781-15.759a6.769,6.769,0,0,0,.8-.915,2.936,2.936,0,0,0-.034-3.353,2.986,2.986,0,0,0-4.653-.2c-2.353,2.311-4.663,4.666-7.012,6.982a.649.649,0,0,0-.127.913,4.376,4.376,0,0,1,.3,3.255,4.675,4.675,0,0,1-4.833,3.407q-7.65.014-15.3,0a1.929,1.929,0,0,1-.9-.09c-.357-.2-.828-.511-.9-.846a1.054,1.054,0,0,1,.858-1.178,2.977,2.977,0,0,1,.829-.072q3.54-.007,7.079,0c2.816,0,5.633.006,8.449,0A2.471,2.471,0,0,0,46.292,114c.638-1.7-.554-3.289-2.565-3.354-1.927-.062-3.86-.165-5.783-.08A38.016,38.016,0,0,1,24,108.758a9.369,9.369,0,0,0-4.585-.339,16.434,16.434,0,0,0-8.27,4.42c-2.859,2.587-5.656,5.241-8.5,7.842-.443.4-.37.653-.019,1.048,1.263,1.423,2.494,2.874,3.738,4.313,1.558,1.8,3.117,3.6,4.7,5.434" transform="translate(0 -69.572)" fill="#00aeef"/>
    <path id="Path_254" data-name="Path 254" d="M102.275,29.811c-.37-.134-1.089-.422-1.828-.648a1.139,1.139,0,0,0-.791.045c-1.023.551-2.031,1.131-3.013,1.75a1.053,1.053,0,0,0-.442.724,4.1,4.1,0,0,1-4.315,4.211c-.583,0-1.167.012-1.75,0a4,4,0,0,1-4.016-4.013,1.025,1.025,0,0,0-.706-1.062,26.79,26.79,0,0,1-2.682-1.566.778.778,0,0,0-.938-.1,4.068,4.068,0,0,1-5.89-1.687c-.255-.438-.516-.873-.757-1.318A4.02,4.02,0,0,1,76.6,20.535a1.011,1.011,0,0,0,.533-1.1c-.053-1.033-.036-2.072.007-3.106a.847.847,0,0,0-.449-.913,4.049,4.049,0,0,1-1.455-5.839c.277-.483.547-.972.839-1.446a4.046,4.046,0,0,1,5.551-1.489.965.965,0,0,0,1.2-.071,29.335,29.335,0,0,1,2.76-1.583.778.778,0,0,0,.529-.781A4.019,4.019,0,0,1,90.4.006c.609,0,1.218-.014,1.826,0a4.006,4.006,0,0,1,3.942,4.01,1,1,0,0,0,.691,1.06,25.781,25.781,0,0,1,2.747,1.6.739.739,0,0,0,.876.06c2.461-1.265,4.545-.649,5.927,1.746a13.176,13.176,0,0,1,1.112,2.155,3.942,3.942,0,0,1-1.826,4.706,1,1,0,0,0-.541,1.088c.051,1.058.042,2.123-.007,3.182a.812.812,0,0,0,.437.852,4.047,4.047,0,0,1,1.429,5.9c-.3.526-.6,1.062-.932,1.567a4.277,4.277,0,0,1-3.8,1.87m.177-2.289c1.708-.054,1.966-1.368,2.588-2.3a1.861,1.861,0,0,0,.111-2.142.632.632,0,0,0-.132-.184,8,8,0,0,0-.858-.615,2.4,2.4,0,0,1-1.321-2.579,12.6,12.6,0,0,0,.028-3.024,2.8,2.8,0,0,1,1.595-3.25,1.739,1.739,0,0,0,.667-2.606c-.216-.4-.453-.792-.683-1.185-.786-1.346-1.668-1.606-3.026-.811a2.5,2.5,0,0,1-3.026-.2,10.179,10.179,0,0,0-2.333-1.4,2.882,2.882,0,0,1-2.179-3.131A1.691,1.691,0,0,0,92.212,2.28c-.476-.055-.962-.007-1.443-.034a2.008,2.008,0,0,0-2.394,2.3,2.318,2.318,0,0,1-1.589,2.42,11.072,11.072,0,0,0-2.514,1.391,2.849,2.849,0,0,1-3.738.3,1.732,1.732,0,0,0-2.5.649c-.3.471-.575.955-.842,1.443a1.785,1.785,0,0,0,.742,2.756,2.668,2.668,0,0,1,1.477,3.089,7.722,7.722,0,0,0-.045,2.416,2.852,2.852,0,0,1-1.631,3.509,1.7,1.7,0,0,0-.651,2.433c.208.405.449.794.677,1.188.875,1.512,1.666,1.752,3.171.889a2.431,2.431,0,0,1,2.89.2A11.169,11.169,0,0,0,86.293,28.7a2.891,2.891,0,0,1,2.123,3.174A1.646,1.646,0,0,0,90.148,33.6c.481.018.963,0,1.445,0,1.714,0,2.271-.536,2.3-2.256A2.483,2.483,0,0,1,95.5,28.925a17.3,17.3,0,0,0,2.887-1.655,2.5,2.5,0,0,1,3.088-.172,5.9,5.9,0,0,0,.979.425" transform="translate(-51.857 0)" fill="#00aeef"/>
    <path id="Path_255" data-name="Path 255" d="M105.861,42.822a7.046,7.046,0,1,1,7.061,7.1,7.135,7.135,0,0,1-7.061-7.1m11.8.028a4.752,4.752,0,1,0-9.5-.023,4.752,4.752,0,1,0,9.5.023" transform="translate(-73.628 -24.896)" fill="#00aeef"/>
  </g>
</svg>
