<svg id="Group_392" data-name="Group 392" xmlns="http://www.w3.org/2000/svg" xmlns:xlink="http://www.w3.org/1999/xlink" width="62.711" height="43.748" viewBox="0 0 62.711 43.748">
  <defs>
    <clipPath id="clip-path">
      <rect id="Rectangle_537" data-name="Rectangle 537" width="62.711" height="43.748" fill="#00aeef"/>
    </clipPath>
  </defs>
  <g id="Group_391" data-name="Group 391" clip-path="url(#clip-path)">
    <path id="Path_251" data-name="Path 251" d="M56.851,32.108c1.368,0,2.633,0,3.9,0,1.652,0,2.034.408,1.952,2.066a10.317,10.317,0,0,1-9.633,9.55c-.305.016-.611.022-.917.022q-20.787,0-41.574,0A10.225,10.225,0,0,1,1.361,38.6,9.392,9.392,0,0,1,0,33.9c-.044-1.328.39-1.784,1.738-1.795,1.106-.009,2.212,0,3.317,0,.229,0,.458-.024.76-.04v-.873q0-11.825,0-23.651A7.255,7.255,0,0,1,11.465.218a9.444,9.444,0,0,1,2.1-.208Q31.35-.008,49.137,0a7.291,7.291,0,0,1,7.711,7.7q.018,11.684,0,23.368v1.037m-2.685-.039c.014-.242.037-.448.037-.654q0-11.864,0-23.727A4.641,4.641,0,0,0,49.218,2.7Q31.357,2.685,13.5,2.7a5.849,5.849,0,0,0-1.6.2A4.678,4.678,0,0,0,8.51,7.776q-.005,11.758,0,23.515v.778ZM2.83,34.8c.029.216.035.333.062.445a7.564,7.564,0,0,0,7.559,5.8q20.893.035,41.786.008a7.5,7.5,0,0,0,5.883-2.57A6.808,6.808,0,0,0,59.885,34.8h-.9c-5.694,0-11.388.011-17.081-.015-.645,0-1.041.145-1.274.776a1.73,1.73,0,0,1-1.871,1.159q-7.2-.055-14.4,0a1.681,1.681,0,0,1-1.916-1.263.851.851,0,0,0-.974-.67c-5.976.021-11.952.014-17.928.014H2.83" transform="translate(0 0)" fill="#00aeef"/>
    <path id="Path_252" data-name="Path 252" d="M85.079,32.321a4.184,4.184,0,0,1-.391.569Q79.571,38.251,74.443,43.6c-.974,1.018-1.809.969-2.7-.147-.862-1.081-1.727-2.16-2.623-3.279-2.024,2.356-4,4.656-5.979,6.954a3.234,3.234,0,0,1-.5.5,1.261,1.261,0,0,1-1.624-.054,1.244,1.244,0,0,1-.294-1.6,3.987,3.987,0,0,1,.5-.681q3.2-3.72,6.4-7.433c.169-.2.334-.4.519-.577a1.314,1.314,0,0,1,2.176.118c.961,1.156,1.9,2.333,2.9,3.57L83.369,30.407c-.392-.022-.631-.044-.871-.049-.917-.017-1.837.015-2.749-.056a1.21,1.21,0,0,1-1.167-1.331,1.225,1.225,0,0,1,1.17-1.262,13.81,13.81,0,0,1,1.549-.047c1.694,0,3.388-.015,5.082,0,1.1.012,1.6.429,1.619,1.43.037,2.188.033,4.377,0,6.565a1.334,1.334,0,1,1-2.663-.013c-.039-1.056-.009-2.114-.009-3.171l-.252-.156" transform="translate(-43.456 -19.846)" fill="#00aeef"/>
  </g>
</svg>
