<svg id="Group_398" data-name="Group 398" xmlns="http://www.w3.org/2000/svg" xmlns:xlink="http://www.w3.org/1999/xlink" width="62.701" height="62.613" viewBox="0 0 62.701 62.613">
  <defs>
    <clipPath id="clip-path">
      <rect id="Rectangle_540" data-name="Rectangle 540" width="62.701" height="62.613" fill="#00aeef"/>
    </clipPath>
  </defs>
  <g id="Group_397" data-name="Group 397" clip-path="url(#clip-path)">
    <path id="Path_259" data-name="Path 259" d="M31.378,3.035a27.943,27.943,0,0,0-21.036,9.344A27.326,27.326,0,0,0,3.22,28.311a27.6,27.6,0,0,0,7.268,22.13A28.029,28.029,0,0,0,26.33,59.228c.74.146,1.5.2,2.241.335a1.455,1.455,0,0,1,1.262,1.672A1.477,1.477,0,0,1,28.217,62.5a25.9,25.9,0,0,1-2.618-.369,30.829,30.829,0,0,1-14.8-7.151A30.24,30.24,0,0,1,1.363,40.309,30.482,30.482,0,0,1,6.32,12.589,29.926,29.926,0,0,1,27.313.3C38.063-1.084,47.219,2.383,54.549,10.321A30.124,30.124,0,0,1,62.627,33.5a30.686,30.686,0,0,1-8.033,18.831,31.6,31.6,0,0,1-9.278,7.042,1.6,1.6,0,0,1-1.906-.1,1.247,1.247,0,0,1-.4-1.562,2.506,2.506,0,0,1,1.034-1.017,30.05,30.05,0,0,0,5.577-3.733,27.4,27.4,0,0,0,9.543-16.219,27.551,27.551,0,0,0-6.054-23.568A27.356,27.356,0,0,0,35.369,3.287c-.8-.115-1.6-.189-2.4-.245-.526-.037-1.058-.007-1.587-.007" transform="translate(0 0)" fill="#00aeef"/>
    <path id="Path_260" data-name="Path 260" d="M101.686,59.749c0,2.9,0,5.8,0,8.695a1.559,1.559,0,0,1-1.265,1.716,1.517,1.517,0,0,1-1.74-1.614c-.019-1.386,0-2.772,0-4.158q0-6.654,0-13.307c0-1.027.467-1.672,1.266-1.78a1.509,1.509,0,0,1,1.744,1.678c.01,2.923,0,5.847,0,8.771" transform="translate(-68.815 -34.372)" fill="#00aeef"/>
    <path id="Path_261" data-name="Path 261" d="M96.739,139.081a2.993,2.993,0,1,1,3.01-2.962,3.013,3.013,0,0,1-3.01,2.962" transform="translate(-65.386 -92.825)" fill="#00aeef"/>
    <path id="Path_262" data-name="Path 262" d="M110.262,198.063a1.664,1.664,0,0,1-1.616-1.385,1.474,1.474,0,0,1,1.28-1.666q2.111-.384,4.224-.764a1.5,1.5,0,0,1,1.871,1.085,1.474,1.474,0,0,1-1.184,1.8c-1.516.344-3.048.621-4.574.926" transform="translate(-75.764 -135.45)" fill="#00aeef"/>
  </g>
</svg>
