<svg id="Group_388" data-name="Group 388" xmlns="http://www.w3.org/2000/svg" xmlns:xlink="http://www.w3.org/1999/xlink" width="63.605" height="56.419" viewBox="0 0 63.605 56.419">
  <defs>
    <clipPath id="clip-path">
      <rect id="Rectangle_535" data-name="Rectangle 535" width="63.605" height="56.419" fill="#00aeef"/>
    </clipPath>
  </defs>
  <g id="Group_387" data-name="Group 387" clip-path="url(#clip-path)">
    <path id="Path_243" data-name="Path 243" d="M129.255,53.437a25.4,25.4,0,0,0,23.787-23.778c-.394,0-.784.01-1.173,0a1.466,1.466,0,1,1-.033-2.914c.377-.015.756,0,1.134,0-.338-12.024-10.69-23.173-23.719-23.747,0,.422.03.844-.007,1.261a1.516,1.516,0,0,1-.97,1.407,1.193,1.193,0,0,1-1.419-.289,2.442,2.442,0,0,1-.5-1.254,20.935,20.935,0,0,1-.021-2.35c.017-1.273.544-1.791,1.823-1.767A27.617,27.617,0,0,1,144.71,5.66a26.86,26.86,0,0,1,10.683,16.931c2.038,11.151-1.4,20.487-10.142,27.716a27.141,27.141,0,0,1-17.133,6.111,1.516,1.516,0,0,1-1.778-1.688c-.019-.828-.021-1.658,0-2.486a1.472,1.472,0,0,1,1.445-1.607,1.534,1.534,0,0,1,1.466,1.609c.019.377,0,.755,0,1.191" transform="translate(-92.358 0)" fill="#00aeef"/>
    <path id="Path_244" data-name="Path 244" d="M14.025,100.389H26.387q1.529,0,1.548,1.421c.014.975-.517,1.487-1.56,1.487q-12.4,0-24.791,0a1.425,1.425,0,0,1-1.489-1.991c.194-.658.572-.917,1.367-.917q4.838,0,9.675,0h2.889" transform="translate(0 -73.401)" fill="#00aeef"/>
    <path id="Path_245" data-name="Path 245" d="M34.731,46.621q4.6,0,9.2,0c1.093,0,1.548.493,1.492,1.575a1.236,1.236,0,0,1-1.363,1.319c-2.038.009-4.076,0-6.114,0q-6.215,0-12.429,0A1.389,1.389,0,0,1,24,47.659c.16-.758.515-1.034,1.4-1.036q4.4-.009,8.8,0h.537" transform="translate(-17.505 -34.087)" fill="#00aeef"/>
    <path id="Path_246" data-name="Path 246" d="M123.835,75.176a3.121,3.121,0,1,1,.964-6.157,1.016,1.016,0,0,0,.963-.219q5.638-4.4,11.291-8.786c.192-.149.419-.37.622-.363a1.38,1.38,0,0,1,.927.322,1.1,1.1,0,0,1,.022.9c-.089.249-.367.44-.582.633q-5.15,4.621-10.312,9.231a1.163,1.163,0,0,0-.485,1.125,3.141,3.141,0,0,1-3.408,3.31m.256-1.71a1.434,1.434,0,0,0,1.477-1.414,1.407,1.407,0,0,0-1.374-1.44,1.471,1.471,0,0,0-1.479,1.427,1.4,1.4,0,0,0,1.376,1.427" transform="translate(-88.478 -43.616)" fill="#00aeef"/>
    <path id="Path_247" data-name="Path 247" d="M34.659,154.293q4.635,0,9.27,0a1.428,1.428,0,0,1,1.372,2.141,1.24,1.24,0,0,1-1.3.737c-2.978-.01-5.956,0-8.934,0-3.2,0-6.4,0-9.606,0a1.262,1.262,0,0,1-1.307-.617,1.775,1.775,0,0,1,.06-1.793c.265-.457.715-.472,1.176-.472q4.635.006,9.27,0" transform="translate(-17.503 -112.814)" fill="#00aeef"/>
  </g>
</svg>
