<svg height="512pt" viewBox="0 0 512 512" width="512pt" xmlns="http://www.w3.org/2000/svg"><path d="m39.226562 256c0 119.804688 96.953126 216.773438 216.773438 216.773438 119.804688 0 216.773438-96.953126 216.773438-216.773438 0-119.804688-96.953126-216.773438-216.773438-216.773438-119.804688 0-216.773438 96.953126-216.773438 216.773438zm157.53125 20.351562-10.519531 10.519532v-10.519532zm-25.519531 25.519532-40.527343 40.527344v-66.046876h40.527343zm218.261719-197.046875c6.246094 5.523437 12.152344 11.429687 17.675781 17.675781l-284.675781 284.675781c-6.246094-5.523437-12.152344-11.429687-17.675781-17.675781 3.875-3.878906 284.582031-284.585938 284.675781-284.675781zm-24.492188 81.058593c-.082031 2.046876-.542968 4.027344-1.371093 5.898438-1.898438 4.292969.566406 9.261719 5.136719 10.335938 7.367187 1.738281 12.511718 8.242187 12.511718 15.820312 0 8.964844-7.292968 16.257812-16.253906 16.257812h-32.535156c-4.28125 0-8.285156-1.664062-11.265625-4.535156 12.46875-12.46875 31.046875-31.046875 43.777343-43.777344zm-109.007812 271.890626c-45.734375 0-87.964844-15.292969-121.84375-41.039063l58.695312-58.695313h63.148438c4.140625 0 7.5-3.355468 7.5-7.5 0-4.140624-3.359375-7.5-7.5-7.5h-48.148438l66.6875-66.6875h60.699219v66.6875h-51.238281c-4.140625 0-7.5 3.359376-7.5 7.5 0 4.144532 3.359375 7.5 7.5 7.5h92.265625c4.140625 0 7.5-3.355468 7.5-7.5v-81.6875c0-4.140624-3.359375-7.5-7.5-7.5h-86.726563l21.078126-21.078124c5.746093 5.644531 13.539062 8.921874 21.878906 8.921874h32.535156c17.234375 0 31.253906-14.019531 31.253906-31.257812 0-11.871094-6.570312-22.375-16.671875-27.664062.269531-1.660157.40625-3.347657.40625-5.054688 0-4.152344-.808593-8.203125-2.375-11.972656l39.089844-39.089844c25.742187 33.875 41.039063 76.105469 41.039063 121.84375 0 111.261719-90.515626 201.773438-201.773438 201.773438zm94.238281-181.421876h18.527344v66.6875h-18.527344zm-94.238281-222.125c45.734375 0 87.964844 15.292969 121.84375 41.039063l-166.085938 166.085937h-88.546874c-4.140626 0-7.5 3.359376-7.5 7.5.699218 83.894532-1.675782 82.640626 1.886718 86.660157l-22.332031 22.332031c-25.746094-33.878906-41.039063-76.109375-41.039063-121.84375 0-111.261719 90.515626-201.773438 201.773438-201.773438zm0 0"/><path d="m256 0c-46.824219 0-92.640625 12.765625-132.488281 36.910156-3.539063 2.148438-4.671875 6.761719-2.527344 10.300782 2.148437 3.546874 6.761719 4.675781 10.300781 2.527343 37.503906-22.726562 80.628906-34.738281 124.714844-34.738281 132.886719 0 241 108.113281 241 241s-108.113281 241-241 241-241-108.113281-241-241c0-75.078125 34.089844-144.554688 93.53125-190.609375 3.273438-2.539063 3.871094-7.25 1.335938-10.523437-2.539063-3.273438-7.25-3.871094-10.523438-1.335938-60.949219 47.226562-99.34375 120.746094-99.34375 202.46875 0 141.488281 114.5 256 256 256 141.484375 0 256-114.496094 256-256 0-141.488281-114.5-256-256-256zm0 0"/></svg>