<?xml version="1.0" encoding="iso-8859-1"?>
<!-- Generator: Adobe Illustrator 17.1.0, SVG Export Plug-In . SVG Version: 6.00 Build 0)  -->
<!DOCTYPE svg PUBLIC "-//W3C//DTD SVG 1.1//EN" "http://www.w3.org/Graphics/SVG/1.1/DTD/svg11.dtd">
<svg version="1.1" id="Capa_1" xmlns="http://www.w3.org/2000/svg" xmlns:xlink="http://www.w3.org/1999/xlink" x="0px" y="0px"
	 viewBox="0 0 350.557 350.557" style="enable-background:new 0 0 350.557 350.557;" xml:space="preserve">
<g>
	<path style="fill:#231F20;" d="M349.772,228.298l-42.991-68.063V35.028l-17.5-17.5H61.275l-17.5,17.5v125.206L0.784,228.298
		H349.772z M271.781,52.528v85.076c-18.886-5.5-49.271-10.742-96.503-10.742s-77.617,5.242-96.503,10.742V52.528H271.781z"/>
	<polygon style="fill:#231F20;" points="0,249.833 0,284.833 40.778,284.833 40.778,333.028 75.778,333.028 75.778,284.833 
		274.778,284.833 274.778,333.028 309.778,333.028 309.778,284.833 350.557,284.833 350.557,249.833 	"/>
	<path style="fill:#231F20;" d="M214.508,114.87v-8.215V87.267c0-12.104-17.564-21.916-39.23-21.916s-39.229,9.813-39.229,21.916
		v27.604c0,0,24.603-2.174,39.23-2.174S214.508,114.87,214.508,114.87z"/>
</g>
<g>
</g>
<g>
</g>
<g>
</g>
<g>
</g>
<g>
</g>
<g>
</g>
<g>
</g>
<g>
</g>
<g>
</g>
<g>
</g>
<g>
</g>
<g>
</g>
<g>
</g>
<g>
</g>
<g>
</g>
</svg>
