<svg height="512pt" viewBox="0 0 512 512" width="512pt" xmlns="http://www.w3.org/2000/svg"><path d="m39.226562 256c0 119.804688 96.953126 216.773438 216.773438 216.773438 119.804688 0 216.773438-96.953126 216.773438-216.773438 0-119.804688-96.953126-216.773438-216.773438-216.773438-119.804688 0-216.773438 96.953126-216.773438 216.773438zm216.773438-201.773438c111.257812 0 201.773438 90.515626 201.773438 201.773438s-90.515626 201.773438-201.773438 201.773438-201.773438-90.511719-201.773438-201.773438 90.515626-201.773438 201.773438-201.773438zm0 0"/><path d="m332.496094 249.195312h32.535156c17.234375 0 31.257812-14.019531 31.257812-31.257812 0-11.871094-6.574218-22.375-16.675781-27.664062 3.113281-19.0625-11.65625-36.3125-30.851562-36.3125-19.21875 0-33.957031 17.273437-30.847657 36.3125-10.101562 5.289062-16.675781 15.792968-16.675781 27.664062 0 17.238281 14.023438 31.257812 31.257813 31.257812zm-3.742188-47.078124c4.5625-1.070313 7.035156-6.039063 5.136719-10.335938-.917969-2.074219-1.386719-4.285156-1.386719-6.5625 0-8.964844 7.292969-16.257812 16.257813-16.257812 8.964843 0 16.257812 7.292968 16.257812 16.257812 0 2.277344-.464843 4.488281-1.386719 6.5625-1.898437 4.292969.566407 9.261719 5.140626 10.335938 7.367187 1.738281 12.511718 8.242187 12.511718 15.820312 0 8.964844-7.292968 16.257812-16.257812 16.257812h-32.53125c-8.964844 0-16.257813-7.292968-16.257813-16.257812 0-7.578125 5.148438-14.082031 12.515625-15.820312zm0 0"/><path d="m256 0c-46.824219 0-92.640625 12.765625-132.488281 36.910156-3.539063 2.148438-4.671875 6.761719-2.527344 10.300782 2.148437 3.546874 6.757813 4.675781 10.300781 2.527343 37.503906-22.726562 80.628906-34.738281 124.714844-34.738281 132.886719 0 241 108.113281 241 241s-108.113281 241-241 241-241-108.113281-241-241c0-75.078125 34.089844-144.554688 93.53125-190.609375 3.273438-2.539063 3.871094-7.25 1.335938-10.523437-2.539063-3.273438-7.25-3.871094-10.523438-1.335938-60.949219 47.226562-99.34375 120.746094-99.34375 202.46875 0 141.488281 114.5 256 256 256 141.484375 0 256-114.496094 256-256 0-141.488281-114.5-256-256-256zm0 0"/><path d="m123.210938 358.039062h132.789062c4.140625 0 7.5-3.355468 7.5-7.5 0-4.140624-3.359375-7.5-7.5-7.5h-69.761719v-66.6875h149v66.6875h-51.238281c-4.140625 0-7.5 3.359376-7.5 7.5 0 4.144532 3.359375 7.5 7.5 7.5h92.265625c4.140625 0 7.5-3.355468 7.5-7.5v-81.6875c0-4.140624-3.359375-7.5-7.5-7.5h-253.054687c-4.140626 0-7.5 3.359376-7.5 7.5v81.6875c0 4.144532 3.359374 7.5 7.5 7.5zm245.554687-81.6875v66.6875h-18.527344v-66.6875zm-238.054687 0h40.527343v66.6875h-40.527343zm0 0"/></svg>