<?xml version="1.0" encoding="UTF-8"?>
<svg viewBox="0 0 21 39" version="1.1" xmlns="http://www.w3.org/2000/svg" xmlns:xlink="http://www.w3.org/1999/xlink">
    <!-- Generator: Sketch 55.2 (78181) - https://sketchapp.com -->
    <title>Arrow Right Copy</title>
    <desc>Created with Sketch.</desc>
    <g id="Page-1" stroke="none" stroke-width="1" fill="none" fill-rule="evenodd">
        <g id="Mobile-" transform="translate(-27.000000, -719.000000)" >
            <g id="Icons-/-Arrows-/-Arrow-Right-32px" transform="translate(38.000000, 738.000000) scale(-1, 1) translate(-38.000000, -738.000000) translate(28.000000, 719.000000)">
                <path d="M17.9368234,37.9719235 L0.414722508,20.2119235 C-0.138240836,19.6515235 -0.138240836,18.7491235 0.414722508,18.1887235 L17.9368234,0.428723508 C18.4957842,-0.138876492 19.407394,-0.142476492 19.9723523,0.415523508 C20.5373105,0.974723508 20.5433079,1.88552351 19.9855466,2.45192351 L3.46261807,19.2003235 L19.9855466,35.9487235 C20.5433079,36.5151235 20.5373105,37.4259235 19.9723523,37.9851235 C19.6916724,38.2623235 19.3270284,38.4003235 18.961185,38.4003235 C18.5893442,38.4003235 18.2187028,38.2575235 17.9368234,37.9719235 Z" id="Icon" transform="translate(10.200000, 19.200162) scale(-1, 1) translate(-10.200000, -19.200162) "></path>
            </g>
        </g>
    </g>
</svg>