<svg version="1.1" class="icon" xmlns="http://www.w3.org/2000/svg" xmlns:xlink="http://www.w3.org/1999/xlink" xmlns:a="http://ns.adobe.com/AdobeSVGViewerExtensions/3.0/" x="0px" y="0px" width="68.8px" height="44.2px" viewBox="0 0 68.8 44.2" style="enable-background:new 0 0 68.8 44.2;" xml:space="preserve"> <defs> </defs> <g id="XMLID_15_"> <path id="XMLID_17_" class="ic" fill="#03a9f4" d="M68.8,4.9C68,7.1,66.4,7.9,64,8c-4.8,0.3-8.7,1.8-11.4,4.2c1.4,0.2,2.8,0.4,4.2,0.7
C64,14.8,69,21.9,68.5,29.4c-0.5,7.7-6.5,13.9-14,14.7c-9.4,1-17.4-6.4-17.3-15.9c0.1-12.3,7.4-22.7,19.1-26.7
c2.8-0.9,5.9-1.1,8.8-1.5c2-0.2,3,1.3,3.7,2.9C68.8,3.6,68.8,4.2,68.8,4.9z"></path> <path id="XMLID_16_" class="ic" fill="#03a9f4" d="M0,25.6c0.6-2.4,1-4.8,1.8-7.1C5.6,7.5,15.8,0.2,27.3,0c2.6-0.1,4,1.2,4.1,3.7
c0.1,2.3-1.4,4-3.8,4.2c-4,0.2-7.8,1.1-11.2,3.4c-0.4,0.3-0.8,0.6-1.5,1.1c4,0.1,7.3,1.2,10.1,3.5c7.1,5.5,8.1,16.1,2.2,22.9
c-5.8,6.8-16.1,7.3-22.5,1.1c-2.5-2.4-4-5.3-4.6-8.6C0.2,31,0.1,30.7,0,30.4C0,28.8,0,27.2,0,25.6z"></path> </g> </svg>